<svg width="64" height="64" viewBox="0 0 64 64" fill="none" xmlns="http://www.w3.org/2000/svg">
<g clip-path="url(#clip0_95_9)">
<path d="M7.88059 52.9862C6.76781 52.9737 5.7789 52.6889 5.01062 51.9725C5.01062 51.9725 5.00813 51.9725 5.00564 51.9675C4.91643 51.8807 4.83217 51.7915 4.75288 51.7022C4.14566 51.0086 3.81602 50.1186 3.81602 49.1572L3.80859 9.54752C3.80859 7.255 5.74175 5.19793 8.02929 5.05667L47.5967 2.60802C47.6835 2.60306 47.7677 2.60059 47.8545 2.60059C48.8433 2.60059 49.7652 2.95747 50.4692 3.62168C50.566 3.71338 50.6577 3.80757 50.742 3.9067C50.9699 4.16693 51.1583 4.45443 51.3069 4.76423C51.1608 4.45688 50.9699 4.16942 50.742 3.90919C51.3343 4.59818 51.6589 5.47552 51.6589 6.42723V7.44088C51.6589 7.44088 51.6835 8.27114 50.8607 8.32565L50.8657 8.33063L14.4731 10.6107C11.8039 10.7768 9.6353 13.0891 9.6353 15.7633C9.6353 15.7633 9.62043 52.322 9.61794 52.3814C9.59067 52.9862 9.0925 52.9862 8.68113 52.9862H7.88059Z" fill="black"/>
<path d="M60.2124 56.0522C60.2124 56.1116 60.2074 56.1709 60.2024 56.2303C60.1157 57.5018 59.102 58.6221 57.8554 58.8525C57.8305 58.8525 57.8056 58.86 57.7811 58.86L15.5715 61.4154H15.4402C14.6149 61.3731 13.8515 61.0559 13.2567 60.4959C12.59 59.8687 12.2158 59.0111 12.1885 58.0721C12.1885 58.0348 12.1836 57.9974 12.1836 57.958V16.0186C12.1836 15.9592 12.1836 15.9022 12.1885 15.8427C12.2802 14.4969 13.4054 13.3221 14.7487 13.1834C14.7834 13.1834 14.8181 13.1735 14.8528 13.171L57.0846 10.524C57.1514 10.5191 57.2183 10.5166 57.2855 10.5166C58.046 10.5166 58.755 10.7917 59.2979 11.2998C59.6769 11.6542 59.9447 12.0978 60.0883 12.591C60.1502 12.8017 60.1875 13.0223 60.2024 13.2478L60.2124 56.0522Z" fill="black"/>
<path d="M62.8081 13.4607C62.8081 11.9018 62.1959 10.4668 61.0805 9.42094C59.9655 8.37508 58.4956 7.84964 56.9418 7.9488L54.7729 8.08014C54.2304 8.09749 54.2552 7.67865 54.2552 7.67865V6.42706C54.2552 4.61287 53.5413 2.94492 52.2453 1.72803C50.9489 0.511143 49.2362 -0.0985394 47.4297 0.0129881L7.8572 2.46164C4.18424 2.68965 1.19531 5.8694 1.19531 9.54983L1.20275 49.1595C1.20275 50.971 1.91653 52.6414 3.21272 53.861C4.40977 54.986 5.95879 55.5957 7.61432 55.5957C7.75064 55.5957 9.06172 55.5708 9.06172 55.5708C9.54005 55.5708 9.61934 55.7916 9.61934 56.203V58.2279C9.61934 59.8535 10.2662 61.3532 11.4286 62.4459C12.5017 63.4546 13.8921 64 15.3766 64C15.4361 64 15.4932 63.995 15.5526 63.995C15.5824 63.995 15.6096 64 15.6394 64C15.7682 64 15.8971 63.995 16.0285 63.9876L57.7148 61.4645C57.9008 61.4521 58.0817 61.43 58.2627 61.4002C60.7907 61.0905 62.8032 58.8622 62.8032 56.2923L62.7982 56.2674C62.7982 56.1956 62.8081 56.1237 62.8081 56.0519V13.4607ZM7.88206 52.9863C6.76928 52.9739 5.78037 52.6891 5.01208 51.9726C5.01208 51.9726 5.0096 51.9726 5.00711 51.9676C4.9179 51.8809 4.83363 51.7916 4.75434 51.7024C4.14712 51.0087 3.81749 50.1188 3.81749 49.1573L3.81006 9.54766C3.81006 7.25515 5.74321 5.19808 8.03075 5.05682L47.5982 2.60817C47.6849 2.60321 47.7692 2.60073 47.856 2.60073C48.8448 2.60073 49.7667 2.95762 50.4707 3.62183C50.5674 3.71353 50.6592 3.80772 50.7434 3.90684C50.9713 4.16708 51.1598 4.45458 51.3084 4.76437C51.1623 4.45703 50.9713 4.16956 50.7434 3.90933C51.3358 4.59833 51.6604 5.47566 51.6604 6.42738V7.44103C51.6604 7.44103 51.6849 8.27129 50.8622 8.3258L50.8672 8.33077L14.4746 10.6109C11.8053 10.7769 9.63676 13.0893 9.63676 15.7634C9.63676 15.7634 9.6219 52.3221 9.61941 52.3815C9.59214 52.9863 9.09397 52.9863 8.68259 52.9863H7.88206ZM60.2279 56.0519C60.2279 56.1113 60.2232 56.1707 60.2183 56.2304C60.1315 57.5015 59.1178 58.6219 57.8712 58.8523C57.8464 58.8523 57.8215 58.8597 57.7966 58.8597L15.5873 61.4151H15.456C14.6306 61.3728 13.8673 61.0556 13.2725 60.4956C12.6058 59.8684 12.2316 59.0108 12.2043 58.0718C12.2043 58.0345 12.1994 57.9975 12.1994 57.9577L12.1994 16.0187C12.1994 15.9593 12.1994 15.9023 12.2043 15.8428C12.296 14.497 13.4212 13.3222 14.7645 13.1835C14.7992 13.1835 14.8339 13.1735 14.8686 13.1711L57.1004 10.5241C57.1672 10.5192 57.2341 10.5167 57.3009 10.5167C58.0618 10.5167 58.7708 10.7918 59.3134 11.2999C59.6928 11.6543 59.9605 12.0979 60.1041 12.5911C60.166 12.8018 60.2033 13.0224 60.2183 13.2479V40.6194L60.2282 56.0498L60.2279 56.0519Z" fill="white"/>
<path fill-rule="evenodd" clip-rule="evenodd" d="M54.1454 54.7234L18.8061 56.7807C17.3612 56.8823 16.0823 56.3917 16.122 54.498V25.025C16.122 24.0139 16.9547 23.367 17.8742 23.3199L54.6137 21.1166C55.5307 21.0695 56.282 21.7337 56.282 22.6532V52.1783C56.282 53.2589 56.0117 54.6491 54.1529 54.7209H54.1479L54.1454 54.7234Z" fill="white"/>
<path d="M27.0696 32.19C25.364 32.2953 24.7843 33.5968 24.7867 35.5969V35.9485C24.5831 35.9965 24.413 36.042 24.2069 36.0538C22.9781 36.1306 22.0918 35.1328 22.0894 33.3432C22.087 30.6062 24.54 28.0295 29.2136 27.74C33.3745 27.4816 36.0382 29.4913 36.0431 33.0369C36.0456 35.7046 33.8297 37.5969 31.6474 38.1903C35.7413 38.3912 37.4494 40.6739 37.454 43.5855C37.459 48.569 33.8129 51.3946 28.1835 51.7462L28.047 51.7558C23.8165 52.0189 20.8461 50.4136 20.8438 47.6406C20.8438 46.0616 22.0007 44.7243 23.7399 44.6166C23.8764 44.607 24.0129 44.6358 24.1495 44.6262C24.4944 47.4493 26.4061 48.4875 28.3153 48.3702C30.1574 48.2554 31.4533 47.0163 31.4509 45.2602V45.1908C31.4485 42.4513 29.1608 42.3151 25.7161 42.1786L25.1676 38.9128C28.3727 38.3268 29.9753 37.2787 29.9729 35.384C29.9729 33.348 28.8423 32.0847 27.0696 32.1948V32.19Z" fill="black"/>
<path d="M42.4511 30.8466C39.0399 31.8323 38.2875 30.3346 38.6612 28.7651C40.7071 28.2866 46.0276 26.6908 48.0397 25.9707L48.0635 46.9983L51.7837 47.5391C51.7837 48.9072 51.0029 49.7638 49.6038 49.8523C48.4447 49.9241 45.7496 50.0223 44.4536 50.1037C42.4415 50.2281 38.7572 50.5296 38.7572 50.5296C38.6541 50.2544 38.6207 49.9767 38.6207 49.7303C38.6207 49.063 38.8912 48.3785 39.7776 48.0795L42.4724 47.2087L42.4536 30.849L42.4511 30.8466Z" fill="black"/>
</g>
<defs>
<clipPath id="clip0_95_9">
<rect width="64" height="64" fill="white"/>
</clipPath>
</defs>
</svg>
