<svg width="64" height="64" viewBox="0 0 64 64" fill="none" xmlns="http://www.w3.org/2000/svg">
<g clip-path="url(#clip0_95_16)">
<path d="M48.8413 15.1578L33.6835 13.4736L15.1571 15.1578L13.4727 32L15.1568 48.8423L31.9991 50.9476L48.8413 48.8423L50.5255 31.5792L48.8413 15.1578Z" fill="white"/>
<path d="M22.0673 41.2884C20.8085 40.4379 19.9368 39.196 19.4609 37.5537L22.3832 36.3496C22.6485 37.3601 23.1115 38.1432 23.7726 38.699C24.4296 39.2548 25.2296 39.5284 26.1643 39.5284C27.1201 39.5284 27.9413 39.2379 28.6273 38.6568C29.3134 38.0756 29.659 37.3345 29.659 36.4379C29.659 35.5201 29.2968 34.7704 28.5726 34.1896C27.8485 33.6088 26.939 33.3179 25.8526 33.3179H24.1643V30.4254H25.6798C26.6145 30.4254 27.4021 30.1729 28.0421 29.6676C28.6821 29.1624 29.0021 28.4718 29.0021 27.5918C29.0021 26.8088 28.7157 26.1854 28.1432 25.7182C27.5707 25.251 26.8462 25.0152 25.9662 25.0152C25.1073 25.0152 24.4251 25.2427 23.9198 25.7016C23.4145 26.1604 23.0481 26.7246 22.8168 27.3899L19.9243 26.1857C20.3073 25.0993 21.0107 24.1393 22.0421 23.3099C23.0737 22.4804 24.3915 22.0635 25.9915 22.0635C27.1745 22.0635 28.2398 22.291 29.1832 22.7499C30.1262 23.2088 30.8673 23.8446 31.4021 24.6529C31.9368 25.4654 32.2021 26.3752 32.2021 27.3854C32.2021 28.4171 31.9537 29.2884 31.4568 30.0043C30.9598 30.7201 30.3493 31.2673 29.6251 31.6507V31.8232C30.5809 32.2232 31.3598 32.8337 31.9745 33.6548C32.5851 34.476 32.8923 35.4571 32.8923 36.6024C32.8923 37.7476 32.6017 38.7707 32.0206 39.6676C31.4395 40.5646 30.6353 41.2718 29.6165 41.7854C28.5934 42.299 27.444 42.5601 26.1681 42.5601C24.6904 42.5643 23.3262 42.139 22.0673 41.2884Z" fill="#1A73E8"/>
<path d="M39.999 26.7877L36.8073 29.1077L35.2031 26.6741L40.959 22.5225H43.1654V42.1055H39.999V26.7877Z" fill="#1A73E8"/>
<path d="M48.841 63.9997L63.9987 48.842L56.4199 45.4736L48.841 48.842L45.4727 56.4208L48.841 63.9997Z" fill="#EA4335"/>
<path d="M11.7891 56.4207L15.1574 63.9996H48.8415V48.8418H15.1574L11.7891 56.4207Z" fill="#34A853"/>
<path d="M5.05248 0C2.26112 0 0 2.26112 0 5.05248V48.8419L7.57888 52.2102L15.1578 48.8419V15.1578H48.8419L52.2102 7.57888L48.8422 0H5.05248Z" fill="#4285F4"/>
<path d="M0 48.8418V58.9471C0 61.7388 2.26112 63.9996 5.05248 63.9996H15.1578V48.8418H0Z" fill="#188038"/>
<path d="M48.8438 15.1574V48.8415H64.0015V15.1574L56.4226 11.7891L48.8438 15.1574Z" fill="#FBBC04"/>
<path d="M64.0015 15.1578V5.05248C64.0015 2.2608 61.7404 0 58.949 0H48.8438V15.1578H64.0015Z" fill="#1967D2"/>
</g>
<defs>
<clipPath id="clip0_95_16">
<rect width="64" height="64" fill="white"/>
</clipPath>
</defs>
</svg>
