<svg width="65" height="65" viewBox="0 0 65 65" fill="none" xmlns="http://www.w3.org/2000/svg">
<g clip-path="url(#clip0_28_12)">
<path d="M0.889648 15.4214C0.889648 6.93864 7.76579 0.0625 16.2486 0.0625H49.4749C57.9603 0.0625 64.8365 6.93864 64.8365 15.4214V64.0359H16.2486C7.76579 64.0359 0.889648 57.1598 0.889648 48.677V15.4214Z" fill="#18BF94"/>
<path d="M30.3176 7.99036C25.0508 7.99036 20.3718 11.3766 18.7412 16.3774L18.1533 19.8115V31.1937C18.1533 31.7629 18.4459 32.2683 18.9354 32.5609L28.0991 37.8415V22.2002H28.1018V21.458L37.3773 16.1008C38.2741 15.5815 39.251 15.2268 40.2626 15.0413L39.3696 12.0123C37.066 9.43741 33.7703 7.9744 30.3176 7.99036ZM30.3176 11.1159L30.3016 11.1318C32.4216 11.1318 34.4592 11.8633 36.0898 13.2173C36.0233 13.2492 35.893 13.3317 35.7972 13.3796L26.2079 18.9018C25.7184 19.1784 25.4258 19.6998 25.4258 20.269V33.2313L21.3001 30.8532V20.1387C21.2975 15.1618 25.3327 11.1239 30.3176 11.1159Z" fill="white"/>
<path d="M52.4131 17.8081C49.7797 13.2469 44.5076 10.8878 39.3615 11.9761L36.0936 13.1841L26.2363 18.8752C25.7433 19.1598 25.4519 19.6659 25.4432 20.2361L25.452 30.8124L38.9978 22.9917L38.9991 22.994L39.6418 22.623L48.9191 27.9771C49.8172 28.4942 50.6129 29.1628 51.2793 29.9462L53.456 27.6583C54.5341 24.3759 54.1532 20.7902 52.4131 17.8081ZM49.7063 19.3708L49.6845 19.365C50.7445 21.201 51.1298 23.3313 50.7725 25.4204C50.7116 25.3788 50.5751 25.3071 50.4857 25.2482L40.9087 19.7046C40.4244 19.4191 39.8266 19.4264 39.3336 19.711L28.1079 26.1921L28.1045 21.4301L37.3836 16.0729C41.6924 13.5821 47.207 15.0578 49.7063 19.3708Z" fill="white"/>
<path d="M54.9588 41.8529C57.5922 37.2917 56.9991 31.5464 53.4836 27.6339L50.8035 25.4077L40.9462 19.7166C40.4533 19.432 39.8693 19.4327 39.3711 19.7103L30.2162 25.0061L43.7619 32.8267L43.7606 32.829L44.4033 33.2001L44.4051 43.9115C44.4064 44.9478 44.2252 45.9712 43.88 46.94L46.9497 47.6812C50.3314 46.9737 53.2462 44.851 54.9588 41.8529ZM52.252 40.2901L52.2462 40.2683C51.1862 42.1043 49.5339 43.5031 47.546 44.2383C47.5516 44.1647 47.5454 44.0106 47.5518 43.9038L47.5641 32.838C47.5692 32.2758 47.264 31.7618 46.7711 31.4771L35.5454 24.996L39.6677 22.6121L48.9468 27.9694C53.2582 30.4555 54.7375 35.9691 52.252 40.2901Z" fill="white"/>
<path d="M35.409 56.0799C40.6758 56.0799 45.3548 52.6937 46.9854 47.6929L47.5732 44.2588V32.8766C47.5732 32.3074 47.2806 31.802 46.7912 31.5094L37.6274 26.2288V41.8701H37.6248V42.6123L28.3493 47.9696C27.4525 48.4888 26.4756 48.8436 25.464 49.029L26.357 52.058C28.6605 54.6329 31.9563 56.0959 35.409 56.0799ZM35.409 52.9544L35.4249 52.9385C33.3049 52.9385 31.2673 52.207 29.6367 50.853C29.7032 50.8211 29.8336 50.7386 29.9294 50.6908L39.5187 45.1686C40.0082 44.8919 40.3008 44.3706 40.3008 43.8013V30.8391L44.4264 33.2171V43.9317C44.4291 48.9085 40.3938 52.9464 35.409 52.9544Z" fill="white"/>
<path d="M13.3135 46.2623C15.9469 50.8234 21.2189 53.1825 26.3651 52.0942L29.633 50.8863L39.4903 45.1951C39.9833 44.9105 40.2747 44.4044 40.2833 43.8343L40.2745 33.2579L26.7288 41.0786L26.7274 41.0763L26.0847 41.4474L16.8075 36.0932C15.9094 35.5761 15.1137 34.9075 14.4473 34.1242L12.2706 36.412C11.1924 39.6944 11.5733 43.2801 13.3135 46.2623ZM16.0203 44.6995L16.0421 44.7053C14.9821 42.8694 14.5968 40.739 14.954 38.6499C15.0149 38.6915 15.1515 38.7632 15.2409 38.8222L24.8179 44.3657C25.3022 44.6512 25.9 44.644 26.393 44.3593L37.6186 37.8782L37.622 42.6402L28.343 47.9975C24.0342 50.4882 18.5196 49.0125 16.0203 44.6995Z" fill="white"/>
<path d="M10.7678 22.2175C8.13438 26.7787 8.72742 32.5239 12.243 36.4364L14.923 38.6626L24.7803 44.3537C25.2733 44.6383 25.8573 44.6376 26.3554 44.36L35.5104 39.0643L21.9646 31.2436L21.9659 31.2413L21.3232 30.8702L21.3214 20.1588C21.3202 19.1225 21.5014 18.0991 21.8466 17.1303L18.7769 16.3891C15.3952 17.0966 12.4803 19.2194 10.7678 22.2175ZM13.4746 23.7802L13.4804 23.802C14.5404 21.966 16.1927 20.5672 18.1806 19.832C18.175 19.9056 18.1812 20.0597 18.1748 20.1666L18.1625 31.2323C18.1573 31.7945 18.4625 32.3086 18.9555 32.5932L30.1812 39.0743L26.0589 41.4582L16.7798 36.101C12.4684 33.6148 10.9891 28.1012 13.4746 23.7802Z" fill="white"/>
</g>
<defs>
<clipPath id="clip0_28_12">
<rect width="64" height="64" fill="white" transform="translate(0.863281 0.0351562)"/>
</clipPath>
</defs>
</svg>
