<svg width="72" height="64" viewBox="0 0 72 64" fill="none" xmlns="http://www.w3.org/2000/svg">
<g clip-path="url(#clip0_42_17)">
<path d="M5.41539 54.8504L8.57436 60.3068C9.23077 61.4556 10.1744 62.3581 11.2821 63.0145L22.5641 43.4863H0C0 44.7581 0.328205 46.0299 0.984616 47.1786L5.41539 54.8504Z" fill="#0066DA"/>
<path d="M35.8154 20.5126L24.5333 0.984375C23.4256 1.64079 22.4821 2.54335 21.8256 3.69207L0.984616 39.7946C0.340277 40.9186 0.000857898 42.1914 0 43.4869H22.5641L35.8154 20.5126Z" fill="#00AC47"/>
<path d="M60.3481 63.0145C61.4558 62.3581 62.3994 61.4556 63.0558 60.3068L64.3687 58.0504L70.6456 47.1786C71.302 46.0299 71.6302 44.7581 71.6302 43.4863H49.0645L53.8661 52.9222L60.3481 63.0145Z" fill="#EA4335"/>
<path d="M35.8153 20.5128L47.0973 0.984615C45.9896 0.328205 44.7178 0 43.405 0H28.2255C26.9127 0 25.6409 0.369231 24.5332 0.984615L35.8153 20.5128Z" fill="#00832D"/>
<path d="M49.0659 43.4863H22.5633L11.2812 63.0145C12.3889 63.6709 13.6607 63.9991 14.9736 63.9991H56.6556C57.9684 63.9991 59.2402 63.6299 60.3479 63.0145L49.0659 43.4863Z" fill="#2684FC"/>
<path d="M60.2247 21.7433L49.8042 3.69207C49.1478 2.54335 48.2042 1.64079 47.0965 0.984375L35.8145 20.5126L49.0657 43.4869H71.5888C71.5888 42.2151 71.2606 40.9433 70.6042 39.7946L60.2247 21.7433Z" fill="#FFBA00"/>
</g>
<defs>
<clipPath id="clip0_42_17">
<rect width="71.6308" height="64" fill="white"/>
</clipPath>
</defs>
</svg>
