<svg width="43" height="64" viewBox="0 0 43 64" fill="none" xmlns="http://www.w3.org/2000/svg">
<g clip-path="url(#clip0_46_19)">
<path d="M10.6706 63.9993C16.5586 63.9993 21.3372 59.2207 21.3372 53.3327V42.666H10.6706C4.78257 42.666 0.00390625 47.4447 0.00390625 53.3327C0.00390625 59.2207 4.78257 63.9993 10.6706 63.9993Z" fill="#0ACF83"/>
<path d="M0.00390625 32.0007C0.00390625 26.1127 4.78257 21.334 10.6706 21.334H21.3372V42.6673H10.6706C4.78257 42.6673 0.00390625 37.8887 0.00390625 32.0007Z" fill="#A259FF"/>
<path d="M0.00390625 10.6667C0.00390625 4.77867 4.78257 0 10.6706 0H21.3372V21.3333H10.6706C4.78257 21.3333 0.00390625 16.5547 0.00390625 10.6667Z" fill="#F24E1E"/>
<path d="M21.3379 0H32.0046C37.8926 0 42.6712 4.77867 42.6712 10.6667C42.6712 16.5547 37.8926 21.3333 32.0046 21.3333H21.3379V0Z" fill="#FF7262"/>
<path d="M42.6712 32.0007C42.6712 37.8887 37.8926 42.6673 32.0046 42.6673C26.1166 42.6673 21.3379 37.8887 21.3379 32.0007C21.3379 26.1127 26.1166 21.334 32.0046 21.334C37.8926 21.334 42.6712 26.1127 42.6712 32.0007Z" fill="#1ABCFE"/>
</g>
<defs>
<clipPath id="clip0_46_19">
<rect width="42.6752" height="64" fill="white"/>
</clipPath>
</defs>
</svg>
