<svg width="104" height="64" viewBox="0 0 104 64" fill="none" xmlns="http://www.w3.org/2000/svg">
<g clip-path="url(#clip0_81_26)">
<path d="M64.4434 56.3374L43.4872 46.2639C41.4229 45.2731 40.5312 42.7629 41.5385 40.6822L51.612 19.7259C52.6029 17.6617 55.113 16.7699 57.1938 17.7772C60.0342 19.1479 61.6691 19.9241 61.6691 19.9241L61.6525 1.89078L64.4104 1.87427L64.4269 21.2122C64.4269 21.2122 73.9059 25.2085 78.15 27.8343C78.761 28.2141 79.8345 28.9572 80.2803 30.2123C80.6271 31.2196 80.6106 32.3756 80.1152 33.3995L70.0417 54.3558C69.0178 56.453 66.5077 57.3448 64.4434 56.3374Z" fill="white"/>
<path d="M101.897 1.11472C101.22 0.437644 100.311 0.454158 100.311 0.454158C100.311 0.454158 80.9568 1.54408 70.9328 1.77528C68.7365 1.82482 66.5566 1.87436 64.3933 1.89088C64.3933 8.34785 64.3933 14.8048 64.3933 21.2453C63.485 20.8159 62.5602 20.37 61.652 19.9407C61.652 13.9296 61.6355 1.90739 61.6355 1.90739C56.8464 1.97345 46.905 1.54408 46.905 1.54408C46.905 1.54408 23.5542 0.371587 21.011 0.140391C19.3927 0.0413069 17.2954 -0.206403 14.5706 0.388101C13.1339 0.685353 9.03839 1.61014 5.68605 4.83037C-1.74525 11.4525 0.153858 21.9884 0.385054 23.5738C0.665792 25.5059 1.52452 30.8729 5.61999 35.5464C13.1834 44.8108 29.4662 44.5961 29.4662 44.5961C29.4662 44.5961 31.4644 49.3686 34.5195 53.7613C38.648 59.2275 42.8921 63.4881 47.0206 64C57.4244 64 78.2155 63.9835 78.2155 63.9835C78.2155 63.9835 80.1972 64 82.889 62.2826C85.2009 60.8789 87.2652 58.4183 87.2652 58.4183C87.2652 58.4183 89.3955 56.1394 92.368 50.9375C93.2763 49.3356 94.0359 47.7833 94.6965 46.3135C94.6965 46.3135 103.812 26.9756 103.812 8.14968C103.631 2.45235 102.227 1.445 101.897 1.11472ZM19.8055 34.8198C15.5284 33.4161 13.7118 31.7317 13.7118 31.7317C13.7118 31.7317 10.5577 29.5188 8.97233 25.1591C6.24752 17.8599 8.74114 13.4011 8.74114 13.4011C8.74114 13.4011 10.1283 9.68548 15.099 8.44693C17.378 7.83592 20.2184 7.935 20.2184 7.935C20.2184 7.935 21.3909 17.7443 22.8111 23.4912C24.0001 28.3133 26.9065 36.3226 26.9065 36.3226C26.9065 36.3226 22.5964 35.8106 19.8055 34.8198ZM69.397 52.5889C69.397 52.5889 68.3897 54.9834 66.1603 55.132C65.2025 55.1981 64.4594 54.9338 64.4594 54.9338C64.4594 54.9338 64.4098 54.9173 63.5841 54.587L44.9398 45.5043C44.9398 45.5043 43.1398 44.563 42.826 42.9282C42.4627 41.5905 43.2719 39.9391 43.2719 39.9391L52.239 21.46C52.239 21.46 53.0317 19.8581 54.2537 19.3131C54.3528 19.2636 54.6335 19.148 54.9968 19.0654C56.3345 18.7186 57.9694 19.5278 57.9694 19.5278L76.2504 28.3958C76.2504 28.3958 78.3311 29.3371 78.777 31.0711C79.0908 32.2931 78.6944 33.3831 78.4797 33.9115C77.4394 36.4547 69.397 52.5889 69.397 52.5889Z" fill="#609926"/>
<path d="M53.0317 39.1464C51.6776 39.1629 50.4886 40.1042 50.1748 41.4253C49.861 42.7465 50.5051 44.1171 51.6776 44.7281C52.9491 45.3887 54.5675 45.0254 55.4262 43.8364C56.2685 42.6639 56.1363 41.0455 55.129 40.0217L59.0923 31.9133C59.3401 31.9298 59.7034 31.9463 60.1162 31.8307C60.7933 31.6821 61.2887 31.2362 61.2887 31.2362C61.9823 31.5335 62.7089 31.8637 63.4686 32.2436C64.2612 32.6399 65.0044 33.0527 65.6814 33.4491C65.8301 33.5317 65.9787 33.6307 66.1438 33.7628C66.4081 33.9775 66.7053 34.2748 66.92 34.6711C67.2337 35.5794 66.6062 37.1317 66.6062 37.1317C66.2264 38.3868 63.5676 43.8364 63.5676 43.8364C62.23 43.8034 61.041 44.6621 60.6447 45.9006C60.2153 47.2383 60.8263 48.7576 62.1144 49.4181C63.4025 50.0787 64.9878 49.6989 65.8301 48.5429C66.6558 47.4199 66.5897 45.8511 65.6484 44.8107C65.9622 44.1997 66.2594 43.5887 66.5732 42.9446C67.3989 41.2272 68.8026 37.9244 68.8026 37.9244C68.9512 37.6436 69.7439 36.2234 69.2485 34.4069C68.8356 32.5243 67.1677 31.6491 67.1677 31.6491C65.153 30.3445 62.3456 29.1389 62.3456 29.1389C62.3456 29.1389 62.3456 28.4619 62.164 27.9664C61.9823 27.4545 61.7016 27.1242 61.5199 26.9261C62.2961 25.3242 63.0722 23.7389 63.8484 22.137C63.1713 21.8067 62.5107 21.4764 61.8337 21.1296C61.041 22.748 60.2318 24.3829 59.4391 26.0013C58.3327 25.9848 57.3088 26.5793 56.7804 27.5536C56.2189 28.594 56.3345 29.8821 57.0942 30.8234C55.74 33.5977 54.3859 36.3721 53.0317 39.1464Z" fill="#609926"/>
</g>
<defs>
<clipPath id="clip0_81_26">
<rect width="103.815" height="64" fill="white"/>
</clipPath>
</defs>
</svg>
