<svg width="86" height="64" viewBox="0 0 86 64" fill="none" xmlns="http://www.w3.org/2000/svg">
<g clip-path="url(#clip0_82_75)">
<path d="M5.81818 64H19.3939V31.0303L0 16.4849V58.1818C0 61.4012 2.60848 64 5.81818 64Z" fill="#4285F4"/>
<path d="M65.9395 64H79.5152C82.7346 64 85.3334 61.3915 85.3334 58.1818V16.4849L65.9395 31.0303" fill="#34A853"/>
<path d="M65.9395 5.81809V31.0302L85.3334 16.4848V8.72718C85.3334 1.53202 77.1201 -2.56979 71.3698 1.74536" fill="#FBBC04"/>
<path d="M19.3945 31.0302V5.81812L42.6673 23.2727L65.94 5.81812V31.0302L42.6673 48.4848" fill="#EA4335"/>
<path d="M0 8.72718V16.4848L19.3939 31.0302V5.81809L13.9636 1.74536C8.20364 -2.56979 0 1.53202 0 8.72718Z" fill="#C5221F"/>
</g>
<defs>
<clipPath id="clip0_82_75">
<rect width="85.3333" height="64" fill="white"/>
</clipPath>
</defs>
</svg>
