<svg width="78" height="64" viewBox="0 0 78 64" fill="none" xmlns="http://www.w3.org/2000/svg">
<g clip-path="url(#clip0_95_2)">
<path d="M44 32.0005L51.5822 40.6671L61.7778 47.1827L63.5556 32.0538L61.7778 17.2627L51.3867 22.9871L44 32.0005Z" fill="#00832D"/>
<path d="M0 45.778V58.6669C0 61.6136 2.38667 64.0002 5.33333 64.0002H18.2222L20.8889 54.258L18.2222 45.778L9.37778 43.1113L0 45.778Z" fill="#0066DA"/>
<path d="M18.2222 0L0 18.2222L9.37778 20.8889L18.2222 18.2222L20.8444 9.85778L18.2222 0Z" fill="#E94235"/>
<path d="M18.2222 18.2227H0V45.7782H18.2222V18.2227Z" fill="#2684FC"/>
<path d="M73.4227 7.71525L61.7782 17.2619V47.1819L73.476 56.773C75.2271 58.1419 77.7871 56.893 77.7871 54.6664V9.77747C77.7871 7.52413 75.1693 6.28858 73.4227 7.71525ZM44.0004 31.9997V45.7775H18.2227V63.9997H56.4449C59.3915 63.9997 61.7782 61.613 61.7782 58.6664V47.1819L44.0004 31.9997Z" fill="#00AC47"/>
<path d="M56.4449 0H18.2227V18.2222H44.0004V32L61.7782 17.2711V5.33333C61.7782 2.38667 59.3915 0 56.4449 0Z" fill="#FFBA00"/>
</g>
<defs>
<clipPath id="clip0_95_2">
<rect width="77.7778" height="64" fill="white"/>
</clipPath>
</defs>
</svg>
