<svg width="94" height="64" viewBox="0 0 94 64" fill="none" xmlns="http://www.w3.org/2000/svg">
<path d="M0 64.0004H20.3633L21.8178 46.545L2.90783 42.1826L0 64.0004Z" fill="#4C4C4C"/>
<path d="M3.63672 39.2718L21.8182 43.6353L26.1818 28.3629L10.9093 20.3643L3.63672 39.2718Z" fill="#4C4C4C"/>
<path d="M12.3613 17.4542L26.9065 25.4541L38.5439 17.4542L27.635 5.09082L12.3613 17.4542Z" fill="#4C4C4C"/>
<path d="M93.8158 64.0004H73.4538L71.998 46.545L90.908 42.1826L93.8158 64.0004Z" fill="#4C4C4C"/>
<path d="M90.1786 39.2718L71.9971 43.6353L67.6348 28.3629L82.906 20.3643L90.1786 39.2718Z" fill="#4C4C4C"/>
<path d="M81.4516 17.4542L66.9064 25.4541L55.2715 17.4542L66.1804 5.09082L81.4516 17.4542Z" fill="#4C4C4C"/>
<path d="M31.2715 2.90904L42.1804 15.9997H52.3608L61.8164 2.90904L52.3608 0H41.9246L31.2715 2.90904Z" fill="#4C4C4C"/>
<path d="M0 64.0004H20.3633L21.8178 46.545L2.90783 42.1826L0 64.0004Z" fill="#9C0000"/>
<path d="M3.63672 39.2718L21.8182 43.6353L26.1818 28.3629L10.9093 20.3643L3.63672 39.2718Z" fill="#B50808"/>
<path d="M12.3613 17.4542L26.9065 25.4541L38.5439 17.4542L27.635 5.09082L12.3613 17.4542Z" fill="#C61818"/>
<path d="M93.8158 64.0004H73.4538L71.998 46.545L90.908 42.1826L93.8158 64.0004Z" fill="#9C0000"/>
<path d="M90.1786 39.2718L71.9971 43.6353L67.6348 28.3629L82.906 20.3643L90.1786 39.2718Z" fill="#B50808"/>
<path d="M81.4516 17.4542L66.9064 25.4541L55.2715 17.4542L66.1804 5.09082L81.4516 17.4542Z" fill="#C61818"/>
<path d="M31.2715 2.90904L42.1804 15.9997H52.3608L61.8164 2.90904L52.3608 0H41.9246L31.2715 2.90904Z" fill="#CE3129"/>
</svg>
