<svg width="64" height="64" viewBox="0 0 64 64" fill="none" xmlns="http://www.w3.org/2000/svg">
<g clip-path="url(#clip0_46_10)">
<path d="M59.7307 64.0002C62.0706 64.0002 63.9875 62.1154 63.9875 59.8075V17.0404C63.9875 14.7325 62.0706 12.8477 59.7307 12.8477H18.1816L34.8564 64.0002H59.7307Z" fill="#DBDBDB"/>
<path d="M59.7307 14.7709C60.3525 14.7709 60.9423 15.0145 61.3847 15.4505C61.8206 15.88 62.0642 16.4442 62.0642 17.0404V59.8075C62.0642 60.4037 61.827 60.9679 61.3847 61.3974C60.9423 61.8333 60.3525 62.0769 59.7307 62.0769H36.254L20.8293 14.7709H59.7307ZM59.7307 12.8477H18.1816L34.8564 64.0002H59.7307C62.0706 64.0002 63.9875 62.1154 63.9875 59.8075V17.0404C63.9875 14.7325 62.0706 12.8477 59.7307 12.8477Z" fill="#DCDCDC"/>
<path d="M30.9199 51.916L34.8562 64.0006L45.7996 51.916H30.9199Z" fill="#4352B8"/>
<path d="M60.0133 30.5232V28.0165H47.9288V23.9648H44.0053V28.0165H36.293V30.5232H51.6407C50.8201 33.4145 49.0058 36.1456 47.2364 38.2676C44.1014 34.5556 44.0886 33.3504 44.0886 33.3504H40.8319C40.8319 33.3504 40.9665 35.1583 45.3644 40.3126C43.9348 41.7743 42.8513 42.6398 42.8513 42.6398L43.8514 45.7683C43.8514 45.7683 45.3644 44.4669 47.2556 42.4603C49.1532 44.5182 51.6022 46.9928 54.7692 49.9418L56.8271 47.8839C53.4357 44.8067 50.9483 42.3641 49.1212 40.4024C51.5701 37.5047 54.0576 33.8569 54.5833 30.5168H60.0069V30.5232H60.0133Z" fill="#607988"/>
<path d="M4.25684 0C1.91686 0 0 1.91686 0 4.26325V47.665C0 50.005 1.91686 51.9219 4.25684 51.9219H45.8059L29.1311 0H4.25684Z" fill="#4285F4"/>
<path d="M34.2539 12.8477H59.7308C62.0708 12.8477 63.9877 14.7325 63.9877 17.0404V42.6968L34.2539 12.8477Z" fill="url(#paint0_linear_46_10)"/>
<path d="M23.8101 27.6062C23.6498 29.5487 21.9894 32.4272 17.9698 32.4272C14.4886 32.4272 11.6678 29.5487 11.6678 26.0035C11.6678 22.4583 14.4886 19.5798 17.9698 19.5798C19.9507 19.5798 21.2714 20.4388 22.0279 21.1376L24.6691 18.5989C22.9318 16.9962 20.6687 15.9961 17.9698 15.9961C12.45 15.9961 7.96875 20.4773 7.96875 25.9971C7.96875 31.5169 12.45 35.9981 17.9698 35.9981C23.7524 35.9981 27.5733 31.94 27.5733 26.2151C27.5733 25.3945 27.4707 24.7918 27.3361 24.1764H17.9762V27.5998L23.8101 27.6062Z" fill="#EEEEEE"/>
<path d="M59.7303 12.8474H33.2597L29.1311 0H4.25684C1.91686 0 0 1.91686 0 4.26325V47.665C0 50.005 1.91686 51.9219 4.25684 51.9219H30.9198L34.8561 64H59.7303C62.0703 64 63.9872 62.1152 63.9872 59.8073V17.0402C63.9872 14.7322 62.0703 12.8474 59.7303 12.8474Z" fill="url(#paint1_radial_46_10)"/>
</g>
<defs>
<linearGradient id="paint0_linear_46_10" x1="34.2539" y1="27.7722" x2="63.9877" y2="27.7722" gradientUnits="userSpaceOnUse">
<stop stop-color="white" stop-opacity="0.2"/>
<stop offset="1" stop-color="white" stop-opacity="0.02"/>
</linearGradient>
<radialGradient id="paint1_radial_46_10" cx="0" cy="0" r="1" gradientUnits="userSpaceOnUse" gradientTransform="translate(4.18042 1.24154) scale(89.6417 89.6417)">
<stop stop-color="white" stop-opacity="0.1"/>
<stop offset="1" stop-color="white" stop-opacity="0"/>
</radialGradient>
<clipPath id="clip0_46_10">
<rect width="63.9872" height="64" fill="white"/>
</clipPath>
</defs>
</svg>
