<svg width="64" height="64" viewBox="0 0 64 64" fill="none" xmlns="http://www.w3.org/2000/svg">
<g clip-path="url(#clip0_28_2)">
<path d="M0 30.72C0 16.2384 0 8.99768 4.49884 4.49884C8.99768 0 16.2384 0 30.72 0H33.28C47.7616 0 55.0023 0 59.5012 4.49884C64 8.99768 64 16.2384 64 30.72V33.28C64 47.7616 64 55.0023 59.5012 59.5012C55.0023 64 47.7616 64 33.28 64H30.72C16.2384 64 8.99768 64 4.49884 59.5012C0 55.0023 0 47.7616 0 33.28V30.72Z" fill="#0077FF"/>
<path d="M34.054 46.1068C19.4673 46.1068 11.1474 36.1068 10.8008 19.4668H18.1074C18.3474 31.6801 23.734 36.8535 28.0006 37.9201V19.4668H34.8809V30.0001C39.0942 29.5468 43.5204 24.7468 45.0137 19.4668H51.8938C50.7472 25.9735 45.9472 30.7735 42.5339 32.7468C45.9472 34.3468 51.4141 38.5335 53.4941 46.1068H45.9205C44.2938 41.0401 40.2409 37.1201 34.8809 36.5868V46.1068H34.054Z" fill="white"/>
</g>
<defs>
<clipPath id="clip0_28_2">
<rect width="64" height="64" fill="white"/>
</clipPath>
</defs>
</svg>
