<svg width="92" height="64" viewBox="0 0 92 64" fill="none" xmlns="http://www.w3.org/2000/svg">
<path d="M89.5126 9.99437C88.4592 6.05834 85.3658 2.96519 81.4298 1.91157C74.303 5.72205e-07 45.712 0 45.712 0C45.712 0 17.1213 5.72205e-07 9.99434 1.91157C6.05834 2.96519 2.96519 6.05834 1.91157 9.99437C5.72205e-07 17.1213 0 32 0 32C0 32 5.72205e-07 46.8787 1.91157 54.0058C2.96519 57.9418 6.05834 61.0349 9.99434 62.0883C17.1213 64 45.712 64 45.712 64C45.712 64 74.303 64 81.4298 62.0883C85.3658 61.0349 88.4592 57.9418 89.5126 54.0058C91.4243 46.8787 91.4243 32 91.4243 32C91.4243 32 91.4166 17.1213 89.5126 9.99437Z" fill="#FF0000"/>
<path d="M36.5625 45.7133L60.3142 32.0013L36.5625 18.2891V45.7133Z" fill="white"/>
</svg>
