<svg width="64" height="64" viewBox="0 0 64 64" fill="none" xmlns="http://www.w3.org/2000/svg">
<g clip-path="url(#clip0_81_14)">
<path d="M3.85088 2.76035L39.264 0.144671C43.6141 -0.228449 44.7315 0.0230708 47.4669 2.01155L58.7712 9.97507C60.6355 11.3447 61.2563 11.7178 61.2563 13.209V56.8845C61.2563 59.6218 60.2624 61.241 56.7827 61.488L15.6589 63.9789C13.0477 64.1024 11.8042 63.7293 10.4365 61.9866L2.112 51.1616C0.61888 49.1693 0 47.6781 0 45.9347V7.11235C0 4.87427 0.99392 3.00803 3.85088 2.76035Z" fill="white"/>
<path fill-rule="evenodd" clip-rule="evenodd" d="M39.264 0.145311L3.85088 2.76099C0.99392 3.00803 0 4.87491 0 7.11235V45.9347C0 47.6775 0.61888 49.1687 2.112 51.1616L10.4365 61.9859C11.8042 63.7287 13.0477 64.1024 15.6589 63.9783L56.7834 61.4887C60.2605 61.241 61.257 59.6218 61.257 56.8852V13.2096C61.257 11.7952 60.6982 11.3876 59.0534 10.1805L47.4669 2.01155C44.7322 0.0230708 43.6141 -0.228449 39.264 0.144671V0.145311ZM16.5888 12.4948C13.2307 12.7207 12.4691 12.7719 10.5619 11.2212L5.71328 7.36451C5.22048 6.86531 5.46816 6.24259 6.70976 6.11843L40.7533 3.63075C43.6122 3.38115 45.1008 4.37763 46.2189 5.24803L52.0576 9.47843C52.3072 9.60451 52.928 10.3488 52.1811 10.3488L17.024 12.4653L16.5888 12.4948ZM12.6739 56.512V19.4349C12.6739 17.8157 13.1712 17.0688 14.6598 16.9434L55.04 14.5792C56.4096 14.4557 57.0285 15.3261 57.0285 16.9427V53.7728C57.0285 55.392 56.7789 56.7616 54.5434 56.8852L15.9021 59.1252C13.6666 59.2487 12.6746 58.5043 12.6746 56.512H12.6739ZM50.8179 21.4228C51.0656 22.5428 50.8179 23.6628 49.6979 23.7908L47.8355 24.16V51.5347C46.2182 52.4051 44.7296 52.9024 43.4854 52.9024C41.497 52.9024 41.0003 52.2797 39.511 50.4147L27.3318 31.2532V49.792L31.1846 50.6643C31.1846 50.6643 31.1846 52.9043 28.0762 52.9043L19.5066 53.4016C19.257 52.9024 19.5066 51.6589 20.375 51.4112L22.6131 50.7904V26.2784L19.5072 26.0269C19.2576 24.9069 19.8784 23.2896 21.6192 23.1642L30.8141 22.5453L43.4861 41.9546V24.7834L40.256 24.4122C40.0064 23.0407 41.0003 22.0442 42.2419 21.9226L50.8179 21.4228Z" fill="black"/>
</g>
<defs>
<clipPath id="clip0_81_14">
<rect width="64" height="64" fill="white"/>
</clipPath>
</defs>
</svg>
